<?xml version="1.0" encoding="utf-8"?>
<!-- Generator: Adobe Illustrator 16.0.4, SVG Export Plug-In . SVG Version: 6.00 Build 0)  -->
<!DOCTYPE svg PUBLIC "-//W3C//DTD SVG 1.1//EN" "http://www.w3.org/Graphics/SVG/1.1/DTD/svg11.dtd">
<svg version="1.1" id="Layer_1" xmlns="http://www.w3.org/2000/svg" xmlns:xlink="http://www.w3.org/1999/xlink" x="0px" y="0px"
	 width="522.997px" height="329.716px" viewBox="-151.417 -115.66 522.997 329.716"
	 enable-background="new -151.417 -115.66 522.997 329.716" xml:space="preserve">
<g>
	<g>
		<ellipse fill="#D1D3D4" cx="285.582" cy="126.686" rx="74.606" ry="74.606"/>
		<g>
			<rect x="281.201" y="97.302" fill="#FFFFFF" width="8.574" height="66.889"/>
			<g>
				<polygon fill="#FFFFFF" points="250.329,126.459 257.189,131.604 285.488,100.733 314.644,131.604 320.648,126.459 
					285.488,88.727 				"/>
			</g>
		</g>
	</g>
</g>
<g>
	<g>
		<ellipse fill="#39B54A" cx="285.581" cy="-39.905" rx="74.605" ry="74.605"/>
		<g>
			<rect x="281.2" y="-69.289" fill="#FFFFFF" width="8.574" height="66.888"/>
			<g>
				<polygon fill="#FFFFFF" points="250.329,-40.132 257.189,-34.987 285.487,-65.858 314.644,-34.987 320.647,-40.132 
					285.487,-77.864 				"/>
			</g>
		</g>
	</g>
</g>
<g>
	<g>
		<ellipse fill="#D1D3D4" cx="105.384" cy="126.687" rx="74.605" ry="74.605"/>
		<g>
			<rect x="101.003" y="88.728" fill="#FFFFFF" width="8.576" height="66.888"/>
			<g>
				<polygon fill="#FFFFFF" points="140.451,126.459 134.448,121.314 105.291,152.186 76.993,121.314 70.132,126.459 
					105.291,164.191 				"/>
			</g>
		</g>
	</g>
</g>
<g>
	<g>
		<ellipse fill="#FBB040" cx="105.384" cy="-39.905" rx="74.605" ry="74.605"/>
		<g>
			<rect x="101.003" y="-77.864" fill="#FFFFFF" width="8.576" height="66.888"/>
			<g>
				<polygon fill="#FFFFFF" points="140.45,-40.132 134.447,-45.277 105.291,-14.406 76.992,-45.277 70.132,-40.132 105.291,-2.4 
									"/>
			</g>
		</g>
	</g>
</g>
<g>
	<g>
		<ellipse fill="#D1D3D4" cx="-74.812" cy="126.686" rx="74.605" ry="74.605"/>
		<g>
			
				<rect x="-110.954" y="122.096" transform="matrix(-0.7071 0.7071 -0.7071 -0.7071 -37.8305 268.4372)" fill="#FFFFFF" width="72.89" height="8.575"/>
			
				<rect x="-79.403" y="89.939" transform="matrix(-0.7071 0.7071 -0.7071 -0.7071 -38.8576 268.8638)" fill="#FFFFFF" width="8.575" height="72.889"/>
		</g>
	</g>
</g>
<g>
	<g>
		<ellipse fill="#EF4136" cx="-74.812" cy="-39.905" rx="74.605" ry="74.605"/>
		<g>
			
				<rect x="-110.955" y="-44.494" transform="matrix(-0.7071 0.7071 -0.7071 -0.7071 -155.6254 -15.9504)" fill="#FFFFFF" width="72.891" height="8.575"/>
			
				<rect x="-79.403" y="-76.651" transform="matrix(-0.7071 0.7071 -0.7071 -0.7071 -156.6591 -15.5181)" fill="#FFFFFF" width="8.575" height="72.89"/>
		</g>
	</g>
</g>
</svg>
