<?xml version="1.0" encoding="utf-8"?>
<!-- Generator: Adobe Illustrator 16.0.4, SVG Export Plug-In . SVG Version: 6.00 Build 0)  -->
<!DOCTYPE svg PUBLIC "-//W3C//DTD SVG 1.1//EN" "http://www.w3.org/Graphics/SVG/1.1/DTD/svg11.dtd">
<svg version="1.1" id="Layer_1" xmlns="http://www.w3.org/2000/svg" xmlns:xlink="http://www.w3.org/1999/xlink" x="0px" y="0px"
	 width="455.167px" height="303.535px" viewBox="-151.417 -115.66 455.167 303.535"
	 enable-background="new -151.417 -115.66 455.167 303.535" xml:space="preserve">
<g>
	<g>
		<ellipse fill="#D1D3D4" cx="227.582" cy="111.686" rx="74.606" ry="74.606"/>
		<g>
			<rect x="223.201" y="82.302" fill="#FFFFFF" width="8.574" height="66.889"/>
			<g>
				<polygon fill="#FFFFFF" points="192.329,111.459 199.189,116.604 227.488,85.733 256.644,116.604 262.648,111.459 
					227.488,73.727 				"/>
			</g>
		</g>
	</g>
</g>
<g>
	<g>
		<ellipse fill="#39B54A" cx="227.581" cy="-39.905" rx="74.605" ry="74.605"/>
		<g>
			<rect x="223.2" y="-69.289" fill="#FFFFFF" width="8.574" height="66.888"/>
			<g>
				<polygon fill="#FFFFFF" points="192.329,-40.132 199.189,-34.987 227.487,-65.858 256.644,-34.987 262.647,-40.132 
					227.487,-77.864 				"/>
			</g>
		</g>
	</g>
</g>
<g>
	<g>
		<ellipse fill="#D1D3D4" cx="76.384" cy="111.687" rx="74.605" ry="74.605"/>
		<g>
			<rect x="72.003" y="73.728" fill="#FFFFFF" width="8.576" height="66.888"/>
			<g>
				<polygon fill="#FFFFFF" points="111.451,111.459 105.448,106.314 76.291,137.186 47.993,106.314 41.132,111.459 76.291,149.191 
									"/>
			</g>
		</g>
	</g>
</g>
<g>
	<g>
		<ellipse fill="#FBB040" cx="76.384" cy="-39.905" rx="74.605" ry="74.605"/>
		<g>
			<rect x="72.003" y="-77.864" fill="#FFFFFF" width="8.576" height="66.888"/>
			<g>
				<polygon fill="#FFFFFF" points="111.45,-40.132 105.447,-45.277 76.291,-14.406 47.992,-45.277 41.132,-40.132 76.291,-2.4 				
					"/>
			</g>
		</g>
	</g>
</g>
<g>
	<g>
		<ellipse fill="#D1D3D4" cx="-74.812" cy="111.686" rx="74.605" ry="74.605"/>
		<g>
			
				<rect x="-110.954" y="107.096" transform="matrix(-0.7071 0.7071 -0.7071 -0.7071 -48.4369 242.8304)" fill="#FFFFFF" width="72.89" height="8.575"/>
			
				<rect x="-79.403" y="74.939" transform="matrix(-0.7071 0.7071 -0.7071 -0.7071 -49.4646 243.2576)" fill="#FFFFFF" width="8.575" height="72.889"/>
		</g>
	</g>
</g>
<g>
	<g>
		<ellipse fill="#EF4136" cx="-74.812" cy="-39.905" rx="74.605" ry="74.605"/>
		<g>
			
				<rect x="-110.955" y="-44.494" transform="matrix(-0.7071 0.7071 -0.7071 -0.7071 -155.6254 -15.9504)" fill="#FFFFFF" width="72.891" height="8.575"/>
			
				<rect x="-79.403" y="-76.651" transform="matrix(-0.7071 0.7071 -0.7071 -0.7071 -156.6591 -15.5181)" fill="#FFFFFF" width="8.575" height="72.89"/>
		</g>
	</g>
</g>
</svg>
